<svg xmlns="http://www.w3.org/2000/svg" xmlns:xlink="http://www.w3.org/1999/xlink" width="40" zoomAndPan="magnify" viewBox="0 0 30 30.000001" height="40" preserveAspectRatio="xMidYMid meet" version="1.0"><defs><g/><clipPath id="4dffd93859"><path d="M 3.398438 3.457031 L 26.605469 3.457031 L 26.605469 26.664062 L 3.398438 26.664062 Z M 3.398438 3.457031 " clip-rule="nonzero"/></clipPath></defs><g clip-path="url(#4dffd93859)"><path fill="#9356dc" d="M 15 26.664062 C 11.902344 26.664062 8.984375 25.457031 6.796875 23.265625 C 4.601562 21.074219 3.398438 18.15625 3.398438 15.058594 C 3.398438 11.960938 4.601562 9.042969 6.796875 6.855469 C 8.984375 4.664062 11.902344 3.457031 15 3.457031 C 18.097656 3.457031 21.015625 4.664062 23.203125 6.855469 C 25.398438 9.050781 26.605469 11.960938 26.605469 15.058594 C 26.605469 18.15625 25.398438 21.074219 23.203125 23.265625 C 21.015625 25.457031 18.097656 26.664062 15 26.664062 M 15 4.152344 C 12.089844 4.152344 9.347656 5.289062 7.289062 7.347656 C 5.230469 9.40625 4.09375 12.148438 4.09375 15.058594 C 4.09375 17.972656 5.230469 20.714844 7.289062 22.773438 C 9.347656 24.832031 12.089844 25.96875 15 25.96875 C 17.914062 25.96875 20.652344 24.832031 22.714844 22.773438 C 24.773438 20.714844 25.910156 17.972656 25.910156 15.058594 C 25.910156 12.148438 24.773438 9.40625 22.714844 7.347656 C 20.652344 5.289062 17.914062 4.152344 15 4.152344 " fill-opacity="1" fill-rule="nonzero"/></g><path fill="#9356dc" d="M 21.125 9.136719 C 21.003906 9.027344 20.8125 9.035156 20.703125 9.15625 L 18.285156 11.765625 L 18.117188 11.613281 L 20.539062 9 C 20.648438 8.878906 20.640625 8.691406 20.519531 8.582031 C 20.402344 8.46875 20.210938 8.476562 20.101562 8.597656 L 17.679688 11.207031 L 17.515625 11.054688 L 19.933594 8.441406 C 20.046875 8.324219 20.039062 8.132812 19.917969 8.023438 C 19.800781 7.910156 19.609375 7.917969 19.5 8.039062 L 17.078125 10.648438 L 16.914062 10.496094 L 19.332031 7.886719 C 19.445312 7.765625 19.4375 7.578125 19.316406 7.464844 C 19.195312 7.351562 19.007812 7.359375 18.898438 7.480469 L 16.476562 10.09375 L 16.476562 10.089844 L 16.402344 10.171875 C 16.335938 10.242188 16.273438 10.316406 16.21875 10.390625 L 16.214844 10.394531 C 16.011719 10.671875 15.894531 10.960938 15.894531 11.296875 C 15.894531 11.652344 16.019531 11.988281 16.25 12.265625 C 16.09375 12.425781 15.414062 13.089844 14.59375 13.886719 C 13.613281 12.84375 12.746094 11.921875 12.574219 11.71875 C 12.828125 11.4375 12.976562 11.085938 12.996094 10.710938 C 13.011719 10.351562 12.902344 10.039062 12.699219 9.734375 L 12.695312 9.730469 C 12.640625 9.648438 12.582031 9.570312 12.515625 9.488281 L 12.4375 9.402344 L 12.140625 9.09375 C 10.507812 7.667969 9.695312 7.542969 9.21875 7.949219 C 8.660156 8.425781 8.472656 9.257812 9.722656 11.171875 L 9.996094 11.539062 L 10.027344 11.574219 C 10.363281 11.980469 10.683594 12.210938 11.148438 12.269531 C 11.5 12.3125 11.847656 12.234375 12.15625 12.054688 C 12.332031 12.265625 13.121094 13.300781 14 14.460938 C 12.789062 15.636719 11.476562 16.902344 11.136719 17.238281 C 10.898438 17.46875 10.765625 17.621094 10.765625 17.621094 C 10.535156 17.871094 10.550781 18.265625 10.804688 18.5 C 11.054688 18.730469 11.449219 18.71875 11.679688 18.46875 C 11.679688 18.46875 11.84375 18.292969 11.988281 18.125 L 11.988281 18.128906 C 12.203125 17.882812 13.382812 16.464844 14.503906 15.125 C 15.554688 16.507812 16.597656 17.882812 16.796875 18.136719 L 16.796875 18.132812 C 16.941406 18.320312 17.105469 18.511719 17.105469 18.511719 C 17.339844 18.789062 17.753906 18.824219 18.03125 18.585938 C 18.3125 18.351562 18.347656 17.9375 18.113281 17.660156 C 18.113281 17.660156 17.984375 17.492188 17.742188 17.238281 C 17.421875 16.886719 16.246094 15.640625 15.09375 14.417969 C 15.84375 13.519531 16.472656 12.773438 16.625 12.605469 C 16.90625 12.785156 17.234375 12.875 17.566406 12.847656 C 18.007812 12.8125 18.320312 12.609375 18.652344 12.242188 L 18.683594 12.210938 L 21.140625 9.558594 C 21.25 9.4375 21.242188 9.25 21.125 9.136719 " fill-opacity="1" fill-rule="nonzero"/><g fill="#9356dc" fill-opacity="1"><g transform="translate(6.159288, 21.00491)"><g><path d="M 0.90625 -1.59375 C 1.144531 -1.59375 1.34375 -1.515625 1.5 -1.359375 C 1.664062 -1.203125 1.75 -1.015625 1.75 -0.796875 C 1.75 -0.566406 1.664062 -0.375 1.5 -0.21875 C 1.34375 -0.0625 1.144531 0.015625 0.90625 0.015625 C 0.664062 0.015625 0.460938 -0.0546875 0.296875 -0.203125 C 0.128906 -0.359375 0.046875 -0.554688 0.046875 -0.796875 C 0.046875 -1.023438 0.128906 -1.210938 0.296875 -1.359375 C 0.460938 -1.515625 0.664062 -1.59375 0.90625 -1.59375 Z M 0.90625 -1.25 C 0.78125 -1.25 0.675781 -1.203125 0.59375 -1.109375 C 0.507812 -1.023438 0.46875 -0.914062 0.46875 -0.78125 C 0.46875 -0.65625 0.507812 -0.546875 0.59375 -0.453125 C 0.6875 -0.359375 0.789062 -0.3125 0.90625 -0.3125 C 1.03125 -0.3125 1.132812 -0.359375 1.21875 -0.453125 C 1.300781 -0.546875 1.34375 -0.65625 1.34375 -0.78125 C 1.34375 -0.914062 1.300781 -1.023438 1.21875 -1.109375 C 1.132812 -1.203125 1.03125 -1.25 0.90625 -1.25 Z M 0.90625 -1.25 "/></g></g></g><g fill="#9356dc" fill-opacity="1"><g transform="translate(8.123816, 21.00491)"><g><path d="M 1.609375 0 L 1.203125 0 L 1.203125 -0.609375 L 0.5625 -0.609375 L 0.5625 0 L 0.15625 0 L 0.15625 -1.578125 L 0.5625 -1.578125 L 0.5625 -0.921875 L 1.203125 -0.921875 L 1.203125 -1.578125 L 1.609375 -1.578125 Z M 1.609375 0 "/></g></g></g><g fill="#9356dc" fill-opacity="1"><g transform="translate(10.045687, 21.00491)"><g/></g></g><g fill="#9356dc" fill-opacity="1"><g transform="translate(10.723731, 21.00491)"><g><path d="M 1.890625 0 L 1.53125 0 L 1.53125 -1.03125 L 1.15625 -0.15625 L 0.890625 -0.15625 L 0.515625 -1.03125 L 0.515625 0 L 0.15625 0 L 0.15625 -1.578125 L 0.59375 -1.578125 L 1.03125 -0.640625 L 1.453125 -1.578125 L 1.890625 -1.578125 Z M 1.890625 0 "/></g></g></g><g fill="#9356dc" fill-opacity="1"><g transform="translate(12.924003, 21.00491)"><g><path d="M 0.96875 -0.515625 L 0.96875 0 L 0.578125 0 L 0.578125 -0.5 L -0.015625 -1.578125 L 0.390625 -1.578125 L 0.765625 -0.890625 L 1.140625 -1.578125 L 1.546875 -1.578125 Z M 0.96875 -0.515625 "/></g></g></g><g fill="#9356dc" fill-opacity="1"><g transform="translate(14.607886, 21.00491)"><g/></g></g><g fill="#9356dc" fill-opacity="1"><g transform="translate(15.28593, 21.00491)"><g><path d="M 1.328125 -1.265625 L 0.5625 -1.265625 L 0.5625 -0.890625 L 1.265625 -0.890625 L 1.265625 -0.578125 L 0.5625 -0.578125 L 0.5625 0 L 0.15625 0 L 0.15625 -1.578125 L 1.328125 -1.578125 Z M 1.328125 -1.265625 "/></g></g></g><g fill="#9356dc" fill-opacity="1"><g transform="translate(16.799177, 21.00491)"><g><path d="M 0.90625 -1.59375 C 1.144531 -1.59375 1.34375 -1.515625 1.5 -1.359375 C 1.664062 -1.203125 1.75 -1.015625 1.75 -0.796875 C 1.75 -0.566406 1.664062 -0.375 1.5 -0.21875 C 1.34375 -0.0625 1.144531 0.015625 0.90625 0.015625 C 0.664062 0.015625 0.460938 -0.0546875 0.296875 -0.203125 C 0.128906 -0.359375 0.046875 -0.554688 0.046875 -0.796875 C 0.046875 -1.023438 0.128906 -1.210938 0.296875 -1.359375 C 0.460938 -1.515625 0.664062 -1.59375 0.90625 -1.59375 Z M 0.90625 -1.25 C 0.78125 -1.25 0.675781 -1.203125 0.59375 -1.109375 C 0.507812 -1.023438 0.46875 -0.914062 0.46875 -0.78125 C 0.46875 -0.65625 0.507812 -0.546875 0.59375 -0.453125 C 0.6875 -0.359375 0.789062 -0.3125 0.90625 -0.3125 C 1.03125 -0.3125 1.132812 -0.359375 1.21875 -0.453125 C 1.300781 -0.546875 1.34375 -0.65625 1.34375 -0.78125 C 1.34375 -0.914062 1.300781 -1.023438 1.21875 -1.109375 C 1.132812 -1.203125 1.03125 -1.25 0.90625 -1.25 Z M 0.90625 -1.25 "/></g></g></g><g fill="#9356dc" fill-opacity="1"><g transform="translate(18.763705, 21.00491)"><g><path d="M 0.90625 -1.59375 C 1.144531 -1.59375 1.34375 -1.515625 1.5 -1.359375 C 1.664062 -1.203125 1.75 -1.015625 1.75 -0.796875 C 1.75 -0.566406 1.664062 -0.375 1.5 -0.21875 C 1.34375 -0.0625 1.144531 0.015625 0.90625 0.015625 C 0.664062 0.015625 0.460938 -0.0546875 0.296875 -0.203125 C 0.128906 -0.359375 0.046875 -0.554688 0.046875 -0.796875 C 0.046875 -1.023438 0.128906 -1.210938 0.296875 -1.359375 C 0.460938 -1.515625 0.664062 -1.59375 0.90625 -1.59375 Z M 0.90625 -1.25 C 0.78125 -1.25 0.675781 -1.203125 0.59375 -1.109375 C 0.507812 -1.023438 0.46875 -0.914062 0.46875 -0.78125 C 0.46875 -0.65625 0.507812 -0.546875 0.59375 -0.453125 C 0.6875 -0.359375 0.789062 -0.3125 0.90625 -0.3125 C 1.03125 -0.3125 1.132812 -0.359375 1.21875 -0.453125 C 1.300781 -0.546875 1.34375 -0.65625 1.34375 -0.78125 C 1.34375 -0.914062 1.300781 -1.023438 1.21875 -1.109375 C 1.132812 -1.203125 1.03125 -1.25 0.90625 -1.25 Z M 0.90625 -1.25 "/></g></g></g><g fill="#9356dc" fill-opacity="1"><g transform="translate(20.728233, 21.00491)"><g><path d="M 0.15625 -1.578125 L 0.828125 -1.578125 C 1.078125 -1.578125 1.28125 -1.503906 1.4375 -1.359375 C 1.59375 -1.210938 1.671875 -1.019531 1.671875 -0.78125 C 1.671875 -0.550781 1.59375 -0.363281 1.4375 -0.21875 C 1.28125 -0.0703125 1.070312 0 0.8125 0 L 0.15625 0 Z M 0.5625 -1.25 L 0.5625 -0.3125 L 0.84375 -0.3125 C 0.96875 -0.3125 1.066406 -0.351562 1.140625 -0.4375 C 1.222656 -0.53125 1.265625 -0.644531 1.265625 -0.78125 C 1.265625 -0.925781 1.222656 -1.039062 1.140625 -1.125 C 1.054688 -1.207031 0.953125 -1.25 0.828125 -1.25 Z M 0.5625 -1.25 "/></g></g></g><g fill="#9356dc" fill-opacity="1"><g transform="translate(22.607446, 21.00491)"><g/></g></g><g fill="#9356dc" fill-opacity="1"><g transform="translate(23.285489, 21.00491)"><g><path d="M 0.484375 -1.171875 L 0.421875 -0.546875 L 0.1875 -0.546875 L 0.109375 -1.171875 L 0.109375 -1.5625 L 0.484375 -1.5625 Z M 0.296875 -0.359375 C 0.347656 -0.359375 0.390625 -0.335938 0.421875 -0.296875 C 0.460938 -0.265625 0.484375 -0.222656 0.484375 -0.171875 C 0.484375 -0.117188 0.460938 -0.0703125 0.421875 -0.03125 C 0.390625 0 0.347656 0.015625 0.296875 0.015625 C 0.242188 0.015625 0.195312 0 0.15625 -0.03125 C 0.125 -0.0703125 0.109375 -0.117188 0.109375 -0.171875 C 0.109375 -0.222656 0.125 -0.265625 0.15625 -0.296875 C 0.195312 -0.335938 0.242188 -0.359375 0.296875 -0.359375 Z M 0.296875 -0.359375 "/></g></g></g></svg>